<svg xmlns="http://www.w3.org/2000/svg" width="64" height="64" fill="none" viewBox="0 0 64 64"><defs><filter id="eth-glow" width="200%" height="200%" x="-50%" y="-50%"><feGaussianBlur result="blur" stdDeviation="2"/><feMerge><feMergeNode in="blur"/><feMergeNode in="SourceGraphic"/></feMerge></filter><filter id="btc-glow" width="200%" height="200%" x="-50%" y="-50%"><feGaussianBlur result="blur" stdDeviation="3"/><feMerge><feMergeNode in="blur"/><feMergeNode in="SourceGraphic"/></feMerge></filter></defs><g transform="translate(8, 20) scale(0.9)"><circle cx="16" cy="16" r="15" stroke="#8A92B2" stroke-width="2" filter="url(#eth-glow)"/><path stroke="#8A92B2" stroke-width="1.5" d="M16 9.33331L23.3333 16L16 22.6666L8.66667 16L16 9.33331Z"/><path stroke="#8A92B2" stroke-width="1.5" d="M8.66667 16L16 22.6666V26.3333L8.66667 16Z"/></g><g transform="translate(24, 12) scale(0.9)"><circle cx="20" cy="20" r="19" stroke="#F7931A" stroke-width="2.5" filter="url(#btc-glow)"/><path stroke="#F7931A" stroke-linecap="round" stroke-linejoin="round" stroke-width="2" d="M17.5 16.5H22.5C24.7091 16.5 26.5 18.2909 26.5 20.5C26.5 22.7091 24.7091 24.5 22.5 24.5H17.5"/><path stroke="#F7931A" stroke-linecap="round" stroke-width="2" d="M20.5 16.5V14.5"/><path stroke="#F7931A" stroke-linecap="round" stroke-width="2" d="M20.5 24.5V27.5"/><path stroke="#F7931A" stroke-linecap="round" stroke-width="2" d="M17.5 16.5V24.5"/></g></svg>